<svg width="513" height="498" viewBox="0 0 513 498" fill="none" xmlns="http://www.w3.org/2000/svg">
<g clip-path="url(#clip0_1_2)">
<path d="M256.499 177.977C227.89 178.163 204.783 196.684 204.783 219.503C204.783 242.313 227.89 260.845 256.499 261.03C285.108 260.844 308.215 242.312 308.215 219.503C308.216 196.684 285.109 178.163 256.499 177.977ZM80.5621 487.405H38.969C38.969 471.55 45.3955 457.197 55.7687 446.803C66.153 436.41 80.4949 429.99 96.3288 429.99C116.63 429.99 133.071 413.536 133.071 393.219V284.689V219.504V154.308V149.944C133.071 81.6359 188.288 26.2346 256.5 26.005C324.711 26.2336 379.929 81.6359 379.929 149.944V155.962V219.504V283.047V393.22C379.929 403.374 384.04 412.569 390.683 419.229C397.338 425.878 406.514 429.991 416.671 429.991C432.503 429.991 446.846 436.412 457.231 446.804C467.605 457.197 474.031 471.55 474.031 487.406H432.439H395.675H351.941C336.119 487.406 323.289 474.565 323.289 458.72V375.895C323.289 357.438 315.808 340.735 303.727 328.632C291.647 316.542 274.944 309.066 256.502 309.066C219.618 309.066 189.716 338.982 189.716 375.895V458.72C189.716 474.564 176.885 487.406 161.064 487.406H117.33H80.5621V487.405Z" fill="#A3875E"/>
<path d="M351.939 487.405H161.061C176.883 487.405 189.713 474.564 189.713 458.719V375.894C189.713 338.981 219.615 309.065 256.499 309.065C274.941 309.065 291.643 316.541 303.724 328.631C315.805 340.733 323.286 357.437 323.286 375.894V458.719C323.287 474.565 336.117 487.405 351.939 487.405Z" fill="#DBB67E"/>
<path d="M256.499 177.977C285.108 178.163 308.215 196.684 308.215 219.503C308.215 242.313 285.108 260.845 256.499 261.03C227.89 260.844 204.783 242.312 204.783 219.503C204.784 196.684 227.891 178.163 256.499 177.977Z" fill="#DBB67E"/>
<path d="M327.055 47.8045C323.298 52.3219 323.912 59.0312 328.426 62.7905C329.665 63.8223 330.899 64.8962 332.095 65.9802C334.131 67.8272 336.686 68.7387 339.234 68.7387C342.131 68.7387 345.017 67.5615 347.115 65.2452C351.059 60.8913 350.73 54.1619 346.38 50.2131C344.961 48.9276 343.499 47.6551 342.03 46.4308C337.515 42.6735 330.81 43.2882 327.055 47.8045Z" fill="black"/>
<path d="M220.29 124.022C223.013 124.022 225.733 122.982 227.809 120.904C231.961 116.749 231.96 110.01 227.808 105.855L221.305 99.3483C217.154 95.192 210.42 95.193 206.268 99.3493C202.116 103.505 202.117 110.243 206.269 114.398L212.772 120.905C214.849 122.983 217.569 124.022 220.29 124.022Z" fill="black"/>
<path d="M213.262 257.052C224.661 266.204 239.646 271.362 255.604 271.649C255.759 271.655 255.91 271.672 256.064 271.672H256.499H256.567H256.934C257.066 271.672 257.194 271.657 257.324 271.652C273.268 271.392 288.304 266.229 299.735 257.051C312.058 247.16 318.846 233.825 318.846 219.502C318.846 205.176 312.058 191.84 299.735 181.95C288.336 172.802 273.352 167.645 257.393 167.359C257.239 167.353 257.089 167.336 256.934 167.336H256.499H256.431H256.064C255.932 167.336 255.805 167.351 255.674 167.356C239.729 167.616 224.694 172.778 213.263 181.951C200.94 191.841 194.152 205.177 194.152 219.503C194.152 233.826 200.938 247.161 213.262 257.052ZM256.466 188.62C279.141 188.78 297.583 202.629 297.583 219.503C297.583 236.38 279.141 250.228 256.535 250.388C233.86 250.228 215.418 236.379 215.418 219.503C215.418 202.629 233.859 188.78 256.466 188.62Z" fill="black"/>
<path d="M300.226 120.904L306.729 114.397C310.881 110.243 310.882 103.506 306.73 99.3483C302.58 95.194 295.847 95.193 291.693 99.3473L285.19 105.854C281.038 110.008 281.037 116.746 285.189 120.903C287.264 122.982 289.986 124.021 292.708 124.021C295.43 124.022 298.151 122.982 300.226 120.904Z" fill="black"/>
<path d="M250.9 230.146H262.1C267.971 230.146 272.733 225.38 272.733 219.504C272.733 213.628 267.971 208.863 262.1 208.863H250.9C245.029 208.863 240.267 213.628 240.267 219.504C240.267 225.38 245.028 230.146 250.9 230.146Z" fill="black"/>
<path d="M502.367 476.764H483.83C481.625 462.635 475.049 449.599 464.75 439.279C451.908 426.427 434.833 419.349 416.671 419.349C409.695 419.349 403.135 416.632 398.208 411.709C393.277 406.767 390.562 400.2 390.562 393.22V301.471L398.526 306.073C400.199 307.041 402.028 307.5 403.829 307.5C407.505 307.5 411.079 305.59 413.049 302.175C415.985 297.085 414.24 290.579 409.155 287.641L390.561 276.897V230.146H424.556C430.427 230.146 435.188 225.381 435.188 219.504C435.188 213.628 430.427 208.863 424.556 208.863H390.561V162.105L409.157 151.357C414.241 148.418 415.984 141.911 413.046 136.822C410.109 131.732 403.609 129.984 398.522 132.929L390.002 137.852C388.171 117.424 381.729 97.6717 371.069 80.1238C368.018 75.1031 361.48 73.5077 356.46 76.5591C351.442 79.6124 349.847 86.1583 352.898 91.18C363.604 108.804 369.271 129.078 369.294 149.821L339.021 167.316C333.936 170.256 332.194 176.763 335.13 181.853C337.1 185.266 340.674 187.174 344.349 187.174C346.153 187.174 347.981 186.713 349.656 185.746L369.296 174.395V208.864H355.844C349.972 208.864 345.211 213.629 345.211 219.505C345.211 225.382 349.972 230.147 355.844 230.147H369.296V264.612L349.656 253.264C344.568 250.325 338.067 252.07 335.13 257.157C332.194 262.247 333.936 268.755 339.021 271.694L369.296 289.185V393.219C369.296 402.67 372.042 411.699 377.158 419.403H360.433C354.561 419.403 349.8 424.168 349.8 430.044C349.8 435.92 354.561 440.685 360.433 440.685H418.835C418.846 440.685 418.856 440.684 418.868 440.684C430.524 441.221 441.407 446.015 449.709 454.325C455.973 460.599 460.226 468.339 462.177 476.765H443.072V468.907C443.072 463.031 438.31 458.266 432.439 458.266C426.568 458.266 421.806 463.031 421.806 468.907V476.765H406.308V468.907C406.308 463.031 401.547 458.266 395.675 458.266C389.804 458.266 385.043 463.031 385.043 468.907V476.765H351.941C342.005 476.765 333.922 468.671 333.922 458.721V375.895C333.922 355.212 325.87 335.757 311.246 321.11C296.631 306.482 277.19 298.426 256.503 298.426C213.814 298.426 179.083 333.179 179.083 375.896V458.722C179.083 468.672 170.999 476.766 161.064 476.766H127.962V468.908C127.962 463.032 123.201 458.267 117.33 458.267C111.458 458.267 106.697 463.032 106.697 468.908V476.766H91.1948V468.908C91.1948 463.032 86.4335 458.267 80.562 458.267C74.6906 458.267 69.9293 463.032 69.9293 468.908V476.766H50.8231C52.7729 468.341 57.0272 460.602 63.2864 454.331C71.5916 446.018 82.4758 441.223 94.1325 440.687C94.1435 440.687 94.1535 440.688 94.1646 440.688H152.567C158.439 440.688 163.2 435.923 163.2 430.046C163.2 424.17 158.439 419.405 152.567 419.405H135.799C140.788 411.897 143.705 402.894 143.705 393.221V290.837L176.837 271.695C181.923 268.757 183.666 262.249 180.73 257.159C177.794 252.069 171.292 250.325 166.206 253.263L143.705 266.263V230.146H160.018C165.889 230.146 170.651 225.381 170.651 219.504C170.651 213.628 165.889 208.863 160.018 208.863H143.705V172.744L166.204 185.747C167.878 186.715 169.708 187.175 171.51 187.175C175.185 187.175 178.758 185.266 180.729 181.854C183.666 176.765 181.924 170.257 176.839 167.317L143.727 148.18C144.673 86.7359 194.89 36.8747 256.498 36.6481C273.001 36.7082 288.894 40.2389 303.733 47.1387C305.182 47.8136 306.707 48.1324 308.206 48.1324C312.216 48.1324 316.055 45.8522 317.855 41.9736C320.329 36.6441 318.018 30.3168 312.694 27.84C295.296 19.7489 276.69 15.5615 257.386 15.378C257.234 15.372 257.087 15.3559 256.934 15.3559C256.793 15.3559 256.644 15.3599 256.499 15.3629C256.354 15.3599 256.205 15.3559 256.064 15.3559C255.914 15.3559 255.77 15.372 255.62 15.378C186.706 16.0348 129.963 68.9613 123.128 136.276L117.337 132.928C112.25 129.989 105.749 131.734 102.811 136.822C99.8747 141.911 101.617 148.418 106.702 151.358L122.439 160.453V208.863H91.316C85.4446 208.863 80.6833 213.628 80.6833 219.504C80.6833 225.381 85.4446 230.146 91.316 230.146H122.439V278.549L106.702 287.641C101.617 290.581 99.8747 297.087 102.811 302.177C104.781 305.591 108.355 307.499 112.03 307.499C113.834 307.499 115.662 307.037 117.337 306.071L122.439 303.123V393.218C122.439 407.626 110.726 419.348 96.3288 419.348C78.1674 419.348 61.0921 426.426 48.245 439.283C37.949 449.598 31.3742 462.634 29.1689 476.764H10.6327C4.76128 476.764 0 481.529 0 487.405C0 493.281 4.76128 498.046 10.6327 498.046H502.367C508.239 498.046 513 493.281 513 487.405C513 481.529 508.239 476.764 502.367 476.764ZM200.346 458.72V375.894C200.346 344.912 225.536 319.706 256.5 319.706C271.506 319.706 285.607 325.548 296.202 336.153C306.812 346.779 312.654 360.893 312.654 375.894V458.72C312.654 465.222 314.249 471.355 317.051 476.764H195.948C198.751 471.355 200.346 465.222 200.346 458.72Z" fill="black"/>
</g>
<defs>
<clipPath id="clip0_1_2">
<rect width="513" height="498" fill="white"/>
</clipPath>
</defs>
</svg>
